      <svg id="sw-js-blob-svg" viewBox="0 0 100 100" xmlns="http://www.w3.org/2000/svg">                    <defs>                         <linearGradient id="sw-gradient" x1="0" x2="1" y1="1" y2="0">                            <stop id="stop1" stop-color="rgba(0, 0, 0, 1)" offset="0%"></stop>                            <stop id="stop2" stop-color="rgba(195.14, 15.695, 255, 1)" offset="100%"></stop>                        </linearGradient>                    </defs>                <path fill="url(#sw-gradient)" d="M21.7,-36.1C26.7,-30.5,28.5,-22.1,31.7,-14.6C35,-7.1,39.8,-0.3,38.5,5.2C37.2,10.8,29.9,15.1,24.5,21.1C19.1,27,15.7,34.5,10.7,35.7C5.6,36.9,-1.1,31.8,-7.9,28.9C-14.8,26.1,-21.7,25.4,-28.5,22.2C-35.2,18.9,-41.8,12.9,-43,6.1C-44.1,-0.8,-39.8,-8.5,-34.8,-14.4C-29.7,-20.3,-24,-24.3,-18.1,-29.5C-12.1,-34.7,-6.1,-41,1.1,-42.7C8.3,-44.5,16.6,-41.6,21.7,-36.1Z" width="100%" height="100%" transform="translate(50 50)" stroke-width="0" style="transition: all 0.3s ease 0s;" stroke="url(#sw-gradient)"></path>              </svg>